# xmcd
#
# Track frame offsets: 
#        150
#        10429
#        23074
#        36381
#        49980
#        62542
#        74609
#        86798
#        96866
#        109208
#        121265
#        131622
#        145148
#        155072
#        164774
#        177786
#        189626
#        202473
#        216165
#        228809
#        242138
#        254317
#        268107
#        280098
#        292215
#
# Disc length: 4050 seconds
#
# Revision: 2
# Processed by: cddbd v1.5.2PL0 Copyright (c) Steve Scherf et al.
# Submitted via: ExactAudioCopy v1.0b3
#
DISCID=8d0fd019
DTITLE=Various Artist - Country and western
DYEAR=1999
DGENRE=Country
TTITLE0=David Price - Jack Knife
TTITLE1=George Kent - Hardscuffle Road
TTITLE2=Linda Manning - If only for a moment
TTITLE3=Rick Johnson - I've heard these very lines before
TTITLE4=Bobby Bare - The year that Clayton Delaney died
TTITLE5=Dave Dudley - Rollin' on - we gone
TTITLE6=David Price - I need a friend
TTITLE7=Dave Dudley - Truck driving song-of-a-gun
TTITLE8=Bobby Bare - Roses are red, my love
TTITLE9=Freddy Quinn - On top of Old Smoky
TTITLE10=Linda Manning - Bonjour, tristesse  (Hello, sadness)
TTITLE11=Rick Johnson - If you are going to Tulsa
TTITLE12=Ronnie Rogers - The fool on the stool
TTITLE13=George Kent - Let's just pretend
TTITLE14=Ronnie Rogers - Diane (do the wrong again with me)
TTITLE15=George Kent - I always did like Leavenworth
TTITLE16=Ronnie Rogers - Dan D. Derby
TTITLE17=Billy Grammer - The hour of separation
TTITLE18=Bobby Lord - Looking for a cold lonely winter
TTITLE19=Dave Dudley - Counterfeit cowboy
TTITLE20=Rick Pilgreen - How come it took so long to say goodbye
TTITLE21=Dave Dudley - I was country before Barbara Mandrell
TTITLE22=Ronnie Rogers - It's good to know she's there
TTITLE23=Ferlin Husky - Out of the clear blue sky
TTITLE24=Dave Dudley - Six days on the road
EXTD=
EXTT0=
EXTT1=
EXTT2=
EXTT3=
EXTT4=
EXTT5=
EXTT6=
EXTT7=
EXTT8=
EXTT9=
EXTT10=
EXTT11=
EXTT12=
EXTT13=
EXTT14=
EXTT15=
EXTT16=
EXTT17=
EXTT18=
EXTT19=
EXTT20=
EXTT21=
EXTT22=
EXTT23=
EXTT24=
PLAYORDER=
